<?xml version="1.0" standalone="no"?>
<!DOCTYPE svg PUBLIC "-//W3C//DTD SVG 20010904//EN"
 "http://www.w3.org/TR/2001/REC-SVG-20010904/DTD/svg10.dtd">
<svg version="1.0" xmlns="http://www.w3.org/2000/svg"
 width="900.000000pt" height="999.000000pt" viewBox="0 0 900.000000 999.000000"
 preserveAspectRatio="xMidYMid meet">
<metadata>
Created by potrace 1.10, written by Peter Selinger 2001-2011
</metadata>
<g transform="translate(0.000000,999.000000) scale(0.100000,-0.100000)"
fill="#000000" stroke="none">
<path d="M6905 8648 c-68 -135 -147 -244 -257 -355 -97 -99 -118 -105 -118
-35 0 114 -44 302 -71 302 -5 0 -11 -12 -14 -27 -26 -126 -57 -216 -113 -332
l-46 -93 -95 -64 c-148 -97 -242 -164 -307 -219 -115 -97 -229 -198 -249 -219
-11 -12 -50 -48 -86 -79 -74 -63 -71 -58 -144 -292 -57 -181 -117 -328 -162
-396 -18 -28 -33 -52 -33 -55 0 -2 -14 -23 -30 -46 -17 -24 -41 -59 -54 -78
-13 -19 -68 -82 -121 -140 -54 -58 -115 -128 -136 -156 -63 -82 -50 -93 49
-44 34 17 63 30 65 30 12 0 177 96 269 157 224 147 647 489 813 658 70 70 187
159 245 187 33 15 49 22 164 65 61 23 138 92 212 190 202 269 329 678 311
1002 -7 110 -14 151 -27 151 -4 0 -34 -51 -65 -112z m-337 -680 c-49 -83 -183
-276 -280 -403 -28 -36 -242 -253 -281 -283 -29 -24 -47 -28 -47 -12 0 16 70
155 115 230 109 183 301 382 447 465 53 30 62 31 46 3z"/>
<path d="M2094 8704 c-9 -60 1 -315 14 -374 6 -25 18 -81 28 -125 9 -44 22
-93 29 -110 7 -16 19 -48 28 -70 38 -101 82 -201 92 -215 7 -8 15 -22 19 -30
28 -62 139 -214 200 -276 59 -59 66 -62 189 -103 70 -23 144 -51 163 -62 53
-29 161 -118 229 -189 33 -34 105 -101 160 -148 55 -48 102 -89 105 -92 3 -3
21 -17 40 -31 19 -15 47 -38 61 -51 15 -14 91 -74 170 -134 209 -160 370 -263
547 -352 103 -52 132 -61 132 -42 0 18 -46 84 -106 150 -162 178 -219 251
-286 360 -84 138 -124 239 -217 533 -12 38 -28 81 -35 96 -18 34 -254 262
-350 339 -39 31 -78 62 -86 69 -42 35 -152 113 -208 148 -186 118 -185 118
-229 189 -45 74 -72 142 -108 276 -12 46 -27 86 -33 88 -31 10 -72 -139 -72
-262 0 -41 -3 -77 -7 -79 -14 -8 -42 8 -97 56 -99 86 -217 248 -317 436 -33
61 -46 62 -55 5z m577 -786 c112 -76 269 -240 344 -358 40 -63 122 -224 129
-252 10 -45 -13 -34 -100 45 -130 116 -214 212 -334 379 -58 80 -160 239 -160
249 0 11 55 -18 121 -63z"/>
<path d="M4235 7560 c-179 -28 -337 -66 -396 -96 -26 -13 -26 -13 -13 -66 22
-86 81 -233 124 -308 14 -25 36 -65 48 -90 13 -25 31 -58 41 -75 10 -16 35
-61 56 -100 21 -38 49 -88 62 -110 12 -22 26 -46 30 -54 12 -27 217 -326 266
-391 78 -102 107 -132 121 -127 32 12 208 242 259 337 11 19 25 42 33 51 8 8
14 19 14 23 0 5 13 27 28 50 15 22 31 48 35 56 4 8 16 29 27 45 21 33 28 45
85 150 78 143 152 293 199 405 26 63 54 130 62 148 8 18 12 37 9 41 -6 11
-180 64 -260 80 -188 39 -238 44 -470 46 -194 3 -263 0 -360 -15z"/>
<path d="M2649 7238 c-72 -78 -151 -202 -247 -393 -122 -240 -197 -637 -173
-909 5 -60 14 -113 19 -118 6 -6 21 -4 40 6 61 32 70 22 53 -56 -23 -100 -41
-199 -55 -293 -21 -140 -40 -516 -33 -632 12 -185 26 -342 36 -385 5 -24 17
-79 26 -123 72 -355 235 -725 520 -1183 6 -10 28 -44 49 -77 22 -33 60 -93 85
-133 45 -71 302 -425 355 -488 14 -18 26 -34 26 -38 0 -5 52 -70 308 -385 77
-95 270 -322 281 -331 4 -3 47 -50 96 -105 77 -87 445 -475 499 -526 11 -11
24 -19 29 -19 15 0 105 69 128 98 11 15 80 88 152 163 163 167 242 251 332
354 38 44 80 91 92 105 45 51 220 259 273 325 30 37 71 87 90 110 89 107 195
244 260 336 25 35 78 107 118 161 39 54 72 100 72 103 0 2 27 43 60 90 33 47
60 88 60 90 0 2 20 32 44 67 175 252 381 662 494 978 64 180 109 389 134 625
16 153 16 486 0 635 -21 193 -61 431 -83 504 -16 52 -19 50 75 34 30 -5 38 59
33 272 -5 181 -13 241 -61 430 -36 147 -155 429 -201 480 -8 9 -15 20 -15 23
0 22 -159 234 -181 242 -10 3 -41 -11 -77 -35 -34 -22 -72 -45 -86 -51 -41
-19 -41 -44 -3 -97 76 -106 142 -257 183 -422 28 -110 26 -374 -4 -481 -65
-239 -139 -375 -285 -520 -236 -236 -536 -337 -842 -283 -121 21 -196 52 -353
147 l-132 80 6 36 c4 20 13 51 20 70 18 43 18 150 0 198 -7 21 -23 71 -36 111
-13 41 -28 72 -35 72 -8 0 -56 -22 -109 -50 -53 -27 -106 -50 -118 -50 -21 0
-139 55 -195 90 -20 13 -25 13 -37 0 -18 -18 -45 -89 -57 -150 -35 -176 -15
-266 122 -534 126 -250 142 -278 157 -283 15 -6 41 14 53 42 5 11 24 47 44 80
44 77 75 140 118 240 46 108 55 108 148 3 41 -45 115 -126 166 -178 50 -52 95
-107 98 -122 6 -25 4 -28 -18 -28 -27 0 -96 -41 -110 -65 -4 -7 -20 -16 -36
-20 -16 -3 -37 -17 -45 -31 -29 -44 -96 -28 -96 23 0 39 -29 40 -61 2 -16 -19
-29 -38 -29 -43 0 -5 -15 -27 -33 -50 -46 -59 -87 -120 -87 -133 0 -6 -7 -16
-15 -23 -8 -7 -15 -21 -15 -31 0 -11 -10 -23 -24 -29 -13 -5 -28 -15 -33 -23
-4 -8 -15 -17 -23 -20 -9 -3 -4 -6 11 -6 15 -1 32 6 39 14 7 8 21 15 31 15 10
0 21 5 24 10 3 6 16 10 27 10 22 0 115 25 158 42 14 6 39 14 55 19 17 4 57 18
90 29 33 12 74 26 90 30 17 5 127 42 245 83 298 104 289 100 374 136 27 12 52
21 57 21 4 0 45 17 91 39 144 67 181 82 188 74 8 -10 35 -168 55 -328 36 -293
45 -402 47 -585 2 -200 -2 -229 -47 -350 -7 -19 -30 -80 -50 -135 -20 -55 -51
-129 -67 -165 -17 -36 -41 -90 -55 -120 -13 -30 -28 -62 -33 -71 -5 -9 -34
-65 -66 -125 -32 -60 -62 -118 -68 -129 -6 -11 -47 -77 -91 -148 -44 -70 -87
-138 -95 -152 -27 -44 -113 -164 -210 -292 -52 -69 -104 -138 -115 -152 -31
-41 -133 -169 -193 -241 -29 -36 -61 -74 -70 -85 -23 -29 -176 -199 -246 -275
-34 -36 -79 -86 -100 -110 -65 -74 -48 -82 -216 100 -180 194 -212 232 -464
535 -73 88 -385 513 -421 573 -6 9 -23 36 -38 59 -15 24 -27 45 -27 47 0 3
-12 22 -26 43 -14 21 -30 47 -35 58 -5 11 -13 27 -19 35 -107 164 -243 466
-347 770 l-45 135 5 220 c8 317 37 612 83 863 6 32 39 28 136 -17 93 -44 267
-113 403 -161 50 -17 97 -34 105 -37 125 -46 359 -126 470 -159 30 -9 87 -28
125 -42 39 -13 84 -26 102 -29 18 -3 38 -11 44 -19 14 -17 59 -18 59 -1 0 17
-38 77 -48 77 -5 0 -20 24 -35 53 -14 29 -35 61 -47 72 -12 11 -31 37 -41 58
-11 21 -28 46 -38 56 -10 10 -21 25 -23 32 -4 11 -10 10 -27 -5 -11 -11 -21
-25 -21 -31 0 -21 -28 -38 -53 -31 -12 3 -42 22 -65 42 -23 19 -48 37 -56 38
-7 1 -28 14 -45 29 -18 15 -39 27 -47 27 -21 0 -17 43 8 76 12 16 49 58 82 94
132 142 196 218 196 233 0 17 -37 3 -119 -48 -211 -128 -421 -170 -651 -130
-210 36 -373 125 -540 294 -228 232 -324 501 -299 842 15 207 82 400 193 563
48 71 48 75 -9 112 -51 32 -69 43 -92 53 -11 5 -24 15 -28 20 -12 21 -36 11
-76 -31z m129 -1674 c22 -29 72 -83 111 -121 81 -80 84 -91 45 -179 -15 -33
-30 -70 -34 -84 -5 -14 -18 -50 -30 -80 -12 -30 -26 -68 -30 -85 -5 -16 -21
-66 -35 -110 -71 -220 -111 -391 -160 -685 -31 -187 -71 -348 -97 -389 -18
-29 -35 -26 -40 7 -3 15 -15 61 -26 102 -91 330 -109 767 -42 1055 52 222 135
432 222 563 15 24 28 47 28 52 0 12 23 19 36 11 7 -3 30 -29 52 -57z m3686 12
c172 -259 271 -630 271 -1011 0 -224 -20 -376 -83 -615 -13 -52 -27 -105 -29
-118 -9 -37 -21 -35 -39 5 -36 85 -61 193 -98 428 -59 368 -189 810 -301 1028
-25 48 -19 69 41 127 30 30 85 90 121 133 37 42 69 77 74 77 4 0 23 -24 43
-54z"/>
<path d="M3303 6798 c-41 -58 -55 -102 -50 -156 4 -46 -1 -74 -26 -147 -35
-105 -39 -183 -12 -247 31 -76 88 -192 107 -220 26 -37 266 -180 325 -192 43
-10 134 8 193 38 28 14 77 28 112 31 35 4 77 11 94 16 38 12 118 94 169 174
41 64 41 66 -28 104 -45 25 -67 27 -67 6 0 -41 -65 -129 -130 -177 -72 -54
-143 -73 -270 -73 -110 0 -118 2 -182 33 -120 59 -203 176 -227 319 -11 60
-10 85 3 154 9 45 20 87 26 93 5 5 10 16 10 23 0 7 21 43 47 80 l46 67 -49 43
c-50 44 -75 52 -91 31z"/>
<path d="M5739 6762 l-40 -37 23 -35 c109 -162 138 -276 103 -408 -39 -146
-126 -250 -255 -303 -47 -20 -73 -23 -180 -23 -120 -1 -127 1 -179 29 -77 43
-132 95 -165 157 -34 64 -31 88 14 88 24 0 41 -12 82 -56 131 -140 332 -153
461 -30 80 77 106 161 92 292 -6 57 -13 73 -53 127 -26 34 -54 63 -63 65 -15
3 -42 -16 -138 -95 -19 -15 -46 -36 -60 -45 -14 -9 -44 -30 -66 -47 -89 -66
-302 -208 -349 -232 -71 -36 -76 -49 -46 -106 24 -45 147 -182 166 -184 5 -1
32 -3 59 -4 28 -2 68 -10 90 -18 237 -87 245 -87 390 4 69 43 79 49 102 59 66
28 178 211 213 347 14 54 9 84 -36 203 -10 27 -16 72 -15 112 1 100 -37 178
-86 178 -14 0 -41 -16 -64 -38z"/>
<path d="M3512 6584 c-46 -56 -72 -134 -72 -219 0 -87 21 -144 76 -205 81 -90
190 -118 329 -86 54 13 67 21 123 81 47 50 72 68 98 72 19 3 34 9 34 13 0 4
-33 30 -72 57 -184 125 -230 159 -328 238 -122 99 -143 104 -188 49z"/>
<path d="M3191 4813 c-31 -68 -80 -325 -68 -357 4 -9 15 -19 24 -23 10 -4 55
-28 100 -55 45 -26 86 -48 92 -48 11 0 15 11 30 111 15 93 14 134 -7 172 -29
52 -143 222 -151 225 -4 1 -13 -10 -20 -25z"/>
<path d="M5925 4827 c-6 -7 -44 -61 -84 -122 l-73 -110 6 -117 c7 -132 11
-148 35 -148 20 0 181 96 199 118 24 31 7 150 -54 380 -4 15 -16 15 -29 -1z"/>
<path d="M5396 4388 c-2 -7 -9 -31 -16 -52 -37 -115 -51 -199 -57 -346 -6
-149 1 -200 25 -200 8 0 181 141 245 199 20 19 37 41 37 49 0 12 -55 111 -100
182 -5 8 -16 29 -24 45 -22 47 -80 128 -93 133 -7 2 -15 -2 -17 -10z"/>
<path d="M3688 4343 c-61 -87 -178 -294 -178 -316 0 -5 154 -138 231 -199 31
-24 55 -36 60 -31 12 12 29 114 29 174 0 51 -31 234 -55 318 -13 48 -39 101
-49 101 -2 0 -19 -21 -38 -47z"/>
<path d="M4535 4214 c-48 -81 -155 -295 -155 -308 0 -17 57 -126 127 -243 49
-83 57 -92 74 -82 11 6 24 21 29 34 5 13 21 43 35 65 47 74 115 209 115 227 0
33 -166 343 -186 350 -7 2 -24 -17 -39 -43z"/>
<path d="M3851 3434 c-12 -19 -21 -37 -21 -39 0 -2 -13 -26 -29 -53 -109 -186
-134 -239 -128 -275 12 -75 129 -287 158 -287 23 0 179 309 179 355 0 17 -21
80 -46 140 -25 61 -53 127 -62 148 -8 21 -19 40 -23 42 -4 3 -16 -11 -28 -31z"/>
<path d="M5241 3438 c-5 -13 -19 -45 -31 -73 -33 -75 -50 -124 -65 -187 -14
-57 -14 -58 19 -135 41 -95 122 -253 140 -271 16 -16 26 0 116 182 l63 129
-19 36 c-11 20 -51 92 -90 162 -39 69 -73 133 -77 141 -3 9 -15 22 -27 28 -17
9 -22 7 -29 -12z"/>
<path d="M4525 3087 c-16 -28 -57 -104 -90 -168 l-60 -117 36 -68 c62 -119
111 -208 131 -236 16 -23 23 -26 39 -17 11 6 23 18 27 27 3 9 31 60 62 112 31
52 64 116 74 142 l17 47 -48 98 c-26 54 -58 114 -71 133 -13 19 -30 49 -39 67
-22 46 -43 41 -78 -20z"/>
</g>
</svg>
